<svg width="32" height="32" xmlns="http://www.w3.org/2000/svg">
 <g>
  <title>Layer 1</title>
  <path transform="rotate(-60 8.91743 14.3266)" id="svg_9" d="m15.57657,8.32367c0,0 -8.60974,5.2223 -8.66056,5.1555c0.05082,0.0668 0.05082,9.94682 0,9.88002c0.05082,0.0668 -4.6069,-2.75606 -4.65772,-2.82286c0.05082,0.0668 0.19196,-10.58951 0.19196,-10.58951c0,0 6.91602,-4.58715 6.8652,-4.65395" opacity="NaN" stroke-width="0" fill="#ffdd00"/>
  <path transform="rotate(60 20.4206 10.7981)" id="svg_10" d="m27.07974,4.79509c0,0 -8.60974,5.2223 -8.66056,5.1555c0.05082,0.0668 0.05082,9.94682 0,9.88002c0.05082,0.0668 -4.6069,-2.75606 -4.65772,-2.82286c0.05082,0.0668 0.19196,-10.58951 0.19196,-10.58951c0,0 6.91602,-4.58715 6.8652,-4.65395" opacity="NaN" stroke-width="0" fill="#ffdd00"/>
  <path transform="rotate(-116 11.3169 21.3132)" id="svg_8" d="m17.97601,15.31026c0,0 -8.60974,5.2223 -8.66056,5.1555c0.05082,0.0668 0.05082,9.94682 0,9.88002c0.05082,0.0668 -4.6069,-2.75606 -4.65772,-2.82286c0.05082,0.0668 0.19196,-10.58951 0.19196,-10.58951c0,0 6.91602,-4.58715 6.8652,-4.65395" opacity="NaN" stroke-width="0" fill="#0057b7"/>
  <path id="svg_5" d="m21.15173,3.45424c0,0 -8.60973,5.2223 -8.66055,5.1555c0.05082,0.0668 0.05082,9.94682 0,9.88002c0.05082,0.0668 -4.60691,-2.75606 -4.65773,-2.82286c0.05082,0.0668 0.19196,-10.58951 0.19196,-10.58951c0,0 6.91602,-4.58715 6.8652,-4.65395" opacity="NaN" stroke-width="0" fill="#0057b7"/>
  <path transform="rotate(180 18.4446 22.0895)" id="svg_6" d="m25.10374,16.08655c0,0 -8.60974,5.2223 -8.66056,5.1555c0.05082,0.0668 0.05082,9.94682 0,9.88002c0.05082,0.0668 -4.6069,-2.75606 -4.65772,-2.82286c0.05082,0.0668 0.19196,-10.58951 0.19196,-10.58951c0,0 6.91602,-4.58715 6.8652,-4.65395" opacity="NaN" stroke-width="0" fill="#ffdd00"/>
  <path transform="rotate(118 22.9612 17.2201)" id="svg_7" d="m29.62032,11.21711c0,0 -8.60974,5.2223 -8.66056,5.1555c0.05082,0.0668 0.05082,9.94682 0,9.88002c0.05082,0.0668 -4.6069,-2.75606 -4.65772,-2.82286c0.05082,0.0668 0.19196,-10.58951 0.19196,-10.58951c0,0 6.91602,-4.58715 6.8652,-4.65395" opacity="NaN" stroke-width="0" fill="#0057b7"/>
  <path d="m29.71,13.09a8.09,8.09 0 0 0 -9.37,-10.41a8.08,8.08 0 0 0 -13.7,2.9a8.08,8.08 0 0 0 -4.34,13.32a8,8 0 0 0 0.7,6.55a8.08,8.08 0 0 0 8.69,3.87a8,8 0 0 0 6,2.68a8.09,8.09 0 0 0 7.7,-5.61a8,8 0 0 0 5.33,-3.86a8.09,8.09 0 0 0 -1.01,-9.44zm-12,16.82a6,6 0 0 1 -3.84,-1.39l0.19,-0.11l6.37,-3.68a1,1 0 0 0 0.53,-0.91l0,-9l2.69,1.56a0.08,0.08 0 0 1 0.05,0.07l0,7.44a6,6 0 0 1 -6.02,6.02l0.03,0zm-12.91,-5.5a6,6 0 0 1 -0.71,-4l0.19,0.11l6.37,3.68a1,1 0 0 0 1,0l7.79,-4.49l0,3.09a0.09,0.09 0 0 1 0,0.08l-6.44,3.72a6,6 0 0 1 -8.2,-2.19zm-1.68,-13.88a6,6 0 0 1 3.16,-2.63l0,7.57a1,1 0 0 0 0.51,0.9l7.75,4.47l-2.69,1.56a0.14,0.14 0 0 1 -0.09,0l-6.44,-3.72a6,6 0 0 1 -2.2,-8.18l0,0.03zm22.13,5.14l-7.78,-4.52l2.69,-1.55a0.08,0.08 0 0 1 0.09,0l6.44,3.72a6,6 0 0 1 -0.9,10.81l0,-7.57a1.06,1.06 0 0 0 -0.54,-0.89zm2.68,-4l-0.19,-0.12l-6.36,-3.7a1,1 0 0 0 -1.05,0l-7.78,4.49l0,-3.14a0.09,0.09 0 0 1 0,-0.09l6.45,-3.71a6,6 0 0 1 8.91,6.21l0.02,0.06zm-16.85,5.48l-2.7,-1.55a0.14,0.14 0 0 1 -0.05,-0.08l0,-7.42a6,6 0 0 1 9.84,-4.61l-0.17,0.11l-6.39,3.68a1,1 0 0 0 -0.53,0.91l0,8.96zm1.46,-3.15l3.46,-2l3.47,2l0,4l-3.47,2l-3.47,-2l0.01,-4z" id="svg_1"/>
  <path id="svg_2" d="m3.86169,19.12113" opacity="NaN" stroke="#000" fill="#fff"/>
 </g>

</svg>